<?xml version="1.0" encoding="utf-8"?>
<!-- Generator: Adobe Illustrator 16.0.3, SVG Export Plug-In . SVG Version: 6.00 Build 0)  -->
<!DOCTYPE svg PUBLIC "-//W3C//DTD SVG 1.1//EN" "http://www.w3.org/Graphics/SVG/1.1/DTD/svg11.dtd">
<svg version="1.1" xmlns="http://www.w3.org/2000/svg" xmlns:xlink="http://www.w3.org/1999/xlink" x="0px" y="0px" width="738px"
	 height="252px" viewBox="0 0 738 252" enable-background="new 0 0 738 252" xml:space="preserve">
<g id="Ink">
	<rect x="310.704" y="215.914" width="14.588" height="17.971"/>
	<polygon points="370.537,215.914 370.537,226.605 357.858,215.914 338.189,215.914 338.189,233.885 352.778,233.885 
		352.778,224.001 363.161,232.47 370.537,233.885 371.766,233.885 385.126,233.885 385.126,215.914 	"/>
	<path d="M406.495,215.914h24.759v4.428c0,0-15.885-0.031-20.211,0c-2.307,0.017-4.534,0.91-4.548,3.659
		c-0.017,3.394,2.058,4.224,4.438,4.224c4.223,0,20.321,0,20.321,0v5.66h-24.759c0,0-13.102,0-13.102-8.542c0-1.317,0-1.344,0-2.761
		C393.394,215.914,406.495,215.914,406.495,215.914z"/>
	<rect x="411.601" y="151.813" fill="#FFFFFF" width="38.071" height="55.158"/>
	<rect x="111.826" y="151.813" fill="#FFFFFF" width="38.071" height="55.158"/>
	<polygon fill="#FFFFFF" points="529.656,151.813 529.656,178.117 505.615,151.813 466.46,151.813 466.46,206.972 502.652,206.972 
		502.652,182.089 524.259,206.972 564.187,206.972 564.187,151.813 	"/>
	<polygon fill="#FFFFFF" points="321.563,166.484 321.563,151.813 258.213,151.813 258.213,206.972 321.563,206.972 
		321.563,192.097 293.249,192.097 293.249,184.943 315.074,184.943 315.074,173.103 293.249,173.103 293.249,166.484 	"/>
	<polygon fill="#FFFFFF" points="642.203,166.484 642.203,151.813 578.853,151.813 578.853,206.972 642.203,206.972 
		642.203,192.097 613.889,192.097 613.889,184.943 635.714,184.943 635.714,173.103 613.889,173.103 613.889,166.484 	"/>
	<polygon fill="#FFFFFF" points="372.93,192.097 372.93,151.813 334.858,151.813 334.858,206.972 401.11,206.972 401.11,192.097 	
		"/>
	<path fill="#FFFFFF" d="M249.19,174.521c-4.882,9.558-16.065,14-25.386,15.389c-8.749,1.303-17.902,2.046-19.476,2.169v14.894
		h-36.277v-55.158c0,0,51.367,0,55.753,0c5.617,0,18.902,1.937,24.623,11.883C250.236,166.843,250.855,171.26,249.19,174.521
		 M204.286,164.166v14.207h4.929c0,0,10.431-0.996,10.431-7.072c0-6.244-10.367-7.135-10.367-7.135H204.286z"/>
	<path fill="#FFFFFF" d="M98.705,174.521c-4.882,9.558-16.065,14-25.386,15.389c-8.749,1.303-17.902,2.046-19.476,2.169v14.894
		H17.566v-55.158c0,0,51.367,0,55.753,0c5.617,0,18.902,1.937,24.623,11.883C99.751,166.843,100.37,171.26,98.705,174.521
		 M53.801,164.166v14.207h4.929c0,0,10.431-0.996,10.431-7.072c0-6.244-10.367-7.135-10.367-7.135H53.801z"/>
	<path fill="#FFFFFF" d="M652.43,187.902c9.504,3.601,15.18,5.802,23.388,5.802c6.336,0,9.792-1.6,9.792-3.76
		c0-5.92-34.408-5.564-34.408-21.564c0-6.88,9.868-16.689,35.933-16.689c11.664,0,20.662,0.314,30.454,4.395v14.4
		c-7.061-2.759-10.607-3.134-16.427-3.134c-4.913,0-9.175,0-9.175,3.314c0,6.641,30.791,4.325,30.791,19.846
		c0,7.84-10.731,18.553-36.363,18.553c-12.673,0-24.049-1.634-33.984-4.193V187.902z"/>
</g>
<g id="Foil">
	<line fill="none" stroke="#008449" stroke-width="4" x1="17.492" y1="224.25" x2="296.23" y2="224.25"/>
	<line fill="none" stroke="#008449" stroke-width="4" x1="446.13" y1="224.25" x2="717.497" y2="224.25"/>
	<path fill="#008449" stroke="#008449" stroke-width="0.288" stroke-miterlimit="2" d="M205.99,28.941
		c25.647,13.923,24.182,15.021,24.182,15.021s10.625,6.962-2.198,15.389s-16.488,11.351-27.846,10.618s-13.564-7.169-13.931-10.833
		s1.832-14.275,1.466-16.106s-1.458-5.295-9.885,1.3c-6.242,4.885-21.25,13.557-4.763,32.243
		c13.067,14.811,19.786,22.716,23.083,29.677s8.061,24.915-12.824,36.64c-18.467,10.367-48.364,22.35-76.942,18.319
		s-41.639-9.003-52.76-18.32c-13.556-11.357-12.824-28.945,10.992-43.6c19.053-11.724,29.312-12.823,38.471-12.823
		c0,0-13.556,4.396-23.083,21.617c-6.591,11.914,0.733,23.815,7.694,29.678s31.51,15.39,50.562,3.298s7.694-27.846,1.099-37.372
		c-3.008-4.345-19.509-19.875-24.548-28.945c-7.328-13.189-2.931-24.914,26.747-40.303C155.182,27.345,180.343,15.018,205.99,28.941
		 M203.323,53.072c-0.379,4.966-0.284,11.665,7.54,6.97c12.421-7.453,8.294-11.481,4.268-14.368
		C207.59,40.269,204.603,36.286,203.323,53.072z"/>
	<path fill="#008449" d="M355.013,72.162c2.455,1.444-0.578,3.321-2.31,4.909c-12.087,11.082-25.475,21.125-32.054,25.701
		c-7.349,5.112-8.33,9.35-1.155,6.064c11.984-5.487,28.183-8.319,31.477-11.118c5.776-4.909,32.906-26.946,37.686-31.043
		c2.021-1.733,3.754-1.3,3.754-1.3c8.375,1.444,10.974,1.155,24.767,5.663c0.688,0.225,2.668,0.835,0.646,1.99
		c-18.188,10.51-7.797,8.952-2.311,6.642c4.609-1.941,44.038-15.594,58.303-11.807c20.748,5.508,17.879,8.86,12.447,13.973
		s-20.063,15.462-30.033,21.37c-3.898,2.31-4.141,5.555-0.626,3.958s15.655-5.432,20.448-7.029s8.985-2.334,12.142-4.154
		c5-2.882,13.952-13.133,42.83-23.529c32.187-11.587,56.101,2.316,61.942,5.631c5.343,3.032,8.639,6.438,2.888,11.551
		s-14.059,8.089-23.968,7.508c-8.333-0.489-13.14-10.251-10.252-14.872c1.916-3.066-0.722-3.898-6.208-1.011
		c-16.458,8.663-40.141,28.445-43.461,32.343c-3.516,4.128-11.84,16.316,3.707,13.052c15.06-3.162,35.133-10.309,62.134-20.56
		c15.367-5.834,28.942-17.597,39.79-23.852c23.74-13.689,52.329-13.833,64.541-10.863c12.291,2.989,33.126,12.624,21.728,29.714
		c-23.709,35.549-76.822,40.376-92.851,38.066c-24.091-3.472-31.607-15.193-30.802-21.771c0.481-3.931,2.069-5.519-11.792,0.979
		c-16.374,7.675-45.957,15.394-70.606,17.038c-25.989,1.733-29.888-14.15-26.235-22.489c2.137-4.878-1.92-2.057-4.473-1.278
		c-5.416,1.651-28.7,12.538-38.022,19.171c-8.084,5.752-9.527,3.298-9.527,3.298s-12.199-7.771-15.714-9.688
		s-2.97-5.189,2.285-10.238c7.364-7.075,18.627-15.45,25.124-19.348c12.981-7.789,21.477-18.021-21.338,3.386
		c-20.041,10.021-46.525,22.171-62.898,34.671c-5.144,3.928-5.158,4.309-7.714,2.712c-7.966-3.923-9.496-4.879-14.553-8.615
		c-2.655-2.128-2.209-3.531,1.105-6.462c13.567-11.109,12.489-13.041-0.93-5.691c-6.309,3.455-21.723,11.314-34.339,18.506
		c-1.147,0.654-3.819,2.949-5.788,1.473c-6.333-3.8-7.8-4.993-9.729-7.089c-0.504-0.548-2.054-2.121-1.641-2.953
		c1.917-4.473-0.492-3.281-4.737-1.31c-4.149,1.927-18.852,9.585-38.022,9.266c-41.531-0.691-11.822-33.868,3.834-44.732
		c10.133-7.031,55.036-28.845,74.742-21.75c18.048,6.498,16.316,9.241,29.099,0.663C345.689,66.584,354.753,72.009,355.013,72.162
		 M284.958,103.022c26.924-15.544,27.009-23.231,24.981-25.259c-5.829-5.829-18.319-0.555-43.578,15.544
		c-13.612,8.676-29.7,24.426-26.369,28.035C242.995,124.596,256.113,119.675,284.958,103.022 M655.174,114.324
		c26.924-15.544,29.312-25.758,26.055-29.903c-7.004-8.914-21.817-4.256-47.076,11.843c-13.612,8.676-29.903,26.351-25.229,31.875
		C611.783,131.518,626.33,130.977,655.174,114.324 M573.753,85.901c0.313,5.92,2.073,7.402,9.475,4.441s5.066-5.686-0.022-9.053
		C576.083,76.577,573.327,77.847,573.753,85.901z"/>
</g>
</svg>
