<?xml version="1.0" encoding="utf-8"?>
<!-- Generator: Adobe Illustrator 16.0.3, SVG Export Plug-In . SVG Version: 6.00 Build 0)  -->
<!DOCTYPE svg PUBLIC "-//W3C//DTD SVG 1.1//EN" "http://www.w3.org/Graphics/SVG/1.1/DTD/svg11.dtd">
<svg version="1.1" id="Layer_1" xmlns="http://www.w3.org/2000/svg" xmlns:xlink="http://www.w3.org/1999/xlink" x="0px" y="0px"
	 width="189.888px" height="139.695px" viewBox="0 0 189.888 139.695" enable-background="new 0 0 189.888 139.695"
	 xml:space="preserve">
<path fill="#048549" stroke="#048549" stroke-width="0.288" stroke-miterlimit="2" d="M161.43,6.483
	c25.646,13.923,24.182,15.021,24.182,15.021s10.625,6.962-2.197,15.389c-12.824,8.427-16.488,11.351-27.847,10.618
	c-11.358-0.733-13.563-7.169-13.931-10.833c-0.367-3.664,1.832-14.275,1.466-16.106c-0.366-1.831-1.458-5.295-9.886,1.3
	c-6.241,4.885-21.25,13.557-4.762,32.243c13.066,14.811,19.785,22.716,23.082,29.677s8.062,24.915-12.824,36.641
	c-18.467,10.366-48.363,22.35-76.941,18.318s-41.639-9.003-52.76-18.32c-13.556-11.356-12.824-28.945,10.992-43.6
	c19.053-11.724,29.312-12.823,38.471-12.823c0,0-13.556,4.396-23.083,21.617c-6.591,11.914,0.733,23.815,7.694,29.678
	c6.961,5.863,31.51,15.39,50.562,3.298c19.052-12.092,7.694-27.846,1.099-37.371c-3.008-4.346-19.509-19.875-24.548-28.945
	c-7.328-13.189-2.931-24.914,26.747-40.303C110.621,4.887,135.782-7.44,161.43,6.483"/>
</svg>
