<svg xmlns="http://www.w3.org/2000/svg" viewBox="0 0 662.6 139.7"><defs><style>.cls-1,.cls-2{fill:#008449;}.cls-1{stroke:#008449;stroke-miterlimit:2;stroke-width:0.29px;}</style></defs><title>Asset 3</title><g id="Layer_2" data-name="Layer 2"><g id="Layer_1-2" data-name="Layer 1"><g id="Foil"><path class="cls-1" d="M161.43,6.48c25.65,13.93,24.18,15,24.18,15s10.63,7-2.2,15.39-16.48,11.35-27.84,10.62S142,40.34,141.64,36.68s1.83-14.28,1.46-16.11-1.46-5.29-9.88,1.3C127,26.76,112,35.43,128.45,54.12c13.07,14.81,19.79,22.71,23.09,29.67s8.06,24.92-12.83,36.64c-18.46,10.37-48.36,22.35-76.94,18.32s-41.64-9-52.76-18.32C-4.54,109.07-3.81,91.49,20,76.83,39.06,65.11,49.32,64,58.47,64c0,0-13.55,4.39-23.08,21.62-6.59,11.91.73,23.81,7.7,29.67s31.51,15.39,50.56,3.3,7.69-27.84,1.1-37.37c-3-4.35-19.51-19.88-24.55-28.95C62.87,39.1,67.27,27.37,97,12c13.67-7.09,38.83-19.42,64.48-5.5m-2.67,24.13c-.38,5-.28,11.67,7.54,7,12.42-7.45,8.3-11.48,4.27-14.36C163,17.81,160,13.83,158.76,30.61Z"/><path class="cls-2" d="M310.45,49.7c2.46,1.45-.58,3.33-2.31,4.91a334.14,334.14,0,0,1-32.05,25.7c-7.35,5.12-8.33,9.35-1.16,6.07,12-5.49,28.19-8.32,31.48-11.12,5.78-4.91,32.91-26.95,37.69-31a4.45,4.45,0,0,1,3.75-1.3c8.38,1.44,11,1.15,24.77,5.66.69.23,2.67.84.64,2-18.18,10.51-7.79,9-2.31,6.64,4.61-1.94,44-15.59,58.31-11.8,20.74,5.5,17.87,8.86,12.44,14s-20.06,15.46-30,21.37c-3.9,2.31-4.14,5.55-.63,4s15.66-5.44,20.45-7,9-2.34,12.14-4.16c5-2.88,14-13.13,42.83-23.53a72,72,0,0,1,61.95,5.64c5.34,3,8.63,6.43,2.88,11.55s-14.06,8.09-24,7.5c-8.34-.48-13.14-10.25-10.26-14.87,1.92-3.06-.72-3.9-6.2-1-16.46,8.66-40.15,28.45-43.47,32.34-3.51,4.13-11.84,16.32,3.71,13.06,15.06-3.17,35.13-10.31,62.14-20.56C548.61,77.8,562.19,66,573,59.78,596.78,46.1,625.36,46,637.58,48.92S670.7,61.55,659.3,78.64c-23.7,35.54-76.82,40.37-92.85,38.06-24.09-3.47-31.6-15.19-30.8-21.77.48-3.93,2.07-5.52-11.79,1-16.37,7.67-46,15.39-70.61,17-26,1.73-29.88-14.15-26.23-22.49,2.14-4.88-1.92-2.06-4.47-1.28-5.42,1.65-28.7,12.54-38,19.17-8.08,5.75-9.52,3.3-9.52,3.3s-12.2-7.77-15.72-9.69-3-5.19,2.29-10.24a167.65,167.65,0,0,1,25.12-19.34c13-7.79,21.48-18-21.34,3.38-20,10-46.52,22.17-62.89,34.67-5.15,3.93-5.16,4.31-7.72,2.71-8-3.92-9.49-4.87-14.55-8.61-2.66-2.13-2.21-3.53,1.1-6.46,13.57-11.11,12.49-13-.93-5.69-6.31,3.45-21.72,11.31-34.34,18.5-1.14.66-3.81,3-5.78,1.48-6.34-3.8-7.8-5-9.73-7.09-.51-.55-2.06-2.12-1.64-3,1.91-4.47-.5-3.28-4.74-1.31s-18.85,9.59-38,9.27c-41.53-.69-11.82-33.87,3.83-44.73,10.13-7,55-28.85,74.74-21.75,18.05,6.5,16.32,9.24,29.1.66,7.35-.32,16.41,5.1,16.67,5.25m-70,30.86c26.92-15.54,27-23.23,25-25.25-5.83-5.83-18.32-.56-43.58,15.54-13.61,8.68-29.7,24.43-26.37,28,3,3.26,16.12-1.66,45-18.32M610.61,91.87C637.54,76.32,639.93,66.11,636.67,62c-7-8.91-21.82-4.25-47.08,11.85-13.61,8.67-29.9,26.35-25.23,31.87,2.86,3.38,17.41,2.84,46.25-13.81M529.19,63.44c.32,5.92,2.08,7.41,9.48,4.44s5.06-5.68,0-9C531.52,54.12,528.77,55.39,529.19,63.44Z"/></g></g></g></svg>