<svg xmlns="http://www.w3.org/2000/svg" viewBox="0 0 705.21 186.61"><defs><style>.cls-1,.cls-2{fill:#008449;}.cls-1{stroke:#008449;stroke-miterlimit:2;stroke-width:0.29px;}</style></defs><title>Asset 1</title><g id="Layer_2" data-name="Layer 2"><g id="Layer_1-2" data-name="Layer 1"><g id="Ink"><rect x="394.04" y="129.36" width="38.07" height="55.16"/><rect x="94.26" y="129.36" width="38.07" height="55.16"/><polygon points="512.09 129.35 512.09 155.66 488.05 129.35 448.89 129.35 448.89 184.51 485.09 184.51 485.09 159.63 506.69 184.51 546.62 184.51 546.62 129.35 512.09 129.35"/><polygon points="304 144.03 304 129.35 240.65 129.35 240.65 184.51 304 184.51 304 169.64 275.68 169.64 275.68 162.49 297.51 162.49 297.51 150.65 275.68 150.65 275.68 144.03 304 144.03"/><polygon points="624.64 144.03 624.64 129.35 561.29 129.35 561.29 184.51 624.64 184.51 624.64 169.64 596.32 169.64 596.32 162.49 618.15 162.49 618.15 150.65 596.32 150.65 596.32 144.03 624.64 144.03"/><polygon points="355.36 169.64 355.36 129.35 317.29 129.35 317.29 184.51 383.54 184.51 383.54 169.64 355.36 169.64"/><path d="M231.62,152.06c-4.88,9.56-16.06,14-25.38,15.39-8.75,1.31-17.9,2.05-19.48,2.17v14.9H150.48V129.36h55.76c5.61,0,18.9,1.93,24.62,11.88,1.81,3.15,2.43,7.56.76,10.82m-44.9-10.35v14.21h4.93s10.43-1,10.43-7.08c0-6.24-10.37-7.13-10.37-7.13Z"/><path d="M81.14,152.06c-4.88,9.56-16.07,14-25.39,15.39-8.75,1.31-17.9,2.05-19.47,2.17v14.9H0V129.36H55.75c5.62,0,18.91,1.93,24.63,11.88,1.8,3.15,2.42,7.56.76,10.82M36.23,141.71v14.21h4.93s10.43-1,10.43-7.08c0-6.24-10.36-7.13-10.36-7.13Z"/><path d="M634.86,165.44c9.51,3.61,15.18,5.81,23.39,5.81,6.34,0,9.79-1.6,9.79-3.76,0-5.92-34.4-5.57-34.4-21.57,0-6.88,9.86-16.69,35.93-16.69,11.66,0,20.66.32,30.45,4.4V148c-7.06-2.76-10.6-3.14-16.42-3.14-4.92,0-9.18,0-9.18,3.32,0,6.64,30.79,4.32,30.79,19.84,0,7.84-10.73,18.56-36.36,18.56a136.14,136.14,0,0,1-34-4.2v-17Z"/></g><g id="Foil"><path class="cls-1" d="M188.42,6.48c25.65,13.93,24.19,15,24.19,15s10.62,7-2.2,15.39-16.49,11.35-27.85,10.62S169,40.34,168.63,36.68s1.83-14.28,1.47-16.11-1.46-5.29-9.89,1.3C154,26.76,139,35.43,155.45,54.12c13.07,14.81,19.78,22.71,23.08,29.67s8.06,24.92-12.82,36.64c-18.47,10.37-48.37,22.35-76.94,18.32s-41.64-9-52.76-18.32c-13.56-11.36-12.83-28.94,11-43.6C66.05,65.11,76.31,64,85.47,64c0,0-13.56,4.39-23.08,21.62-6.6,11.91.73,23.81,7.69,29.67s31.51,15.39,50.56,3.3,7.7-27.84,1.1-37.37c-3-4.35-19.51-19.88-24.55-28.95C89.86,39.1,94.26,27.37,123.94,12c13.68-7.09,38.84-19.42,64.48-5.5m-2.66,24.13c-.38,5-.29,11.67,7.54,7,12.42-7.45,8.29-11.48,4.26-14.36C190,17.81,187,13.83,185.76,30.61Z"/><path class="cls-2" d="M337.45,49.7c2.45,1.45-.58,3.33-2.31,4.91a335.27,335.27,0,0,1-32.06,25.7c-7.35,5.12-8.33,9.35-1.15,6.07,12-5.49,28.18-8.32,31.47-11.12,5.78-4.91,32.91-26.95,37.69-31a4.45,4.45,0,0,1,3.75-1.3c8.38,1.44,11,1.15,24.77,5.66.69.23,2.67.84.65,2-18.19,10.51-7.8,9-2.31,6.64,4.61-1.94,44-15.59,58.3-11.8,20.75,5.5,17.88,8.86,12.45,14s-20.07,15.46-30,21.37c-3.89,2.31-4.14,5.55-.62,4s15.65-5.44,20.45-7,9-2.34,12.14-4.16c5-2.88,13.95-13.13,42.83-23.53a72,72,0,0,1,61.94,5.64c5.34,3,8.64,6.43,2.89,11.55s-14.06,8.09-24,7.5c-8.33-.48-13.14-10.25-10.25-14.87,1.91-3.06-.72-3.9-6.21-1-16.46,8.66-40.14,28.45-43.46,32.34-3.52,4.13-11.84,16.32,3.71,13.06,15.06-3.17,35.13-10.31,62.13-20.56C575.61,77.8,589.18,66,600,59.78,623.77,46.1,652.36,46,664.57,48.92S697.7,61.55,686.3,78.64c-23.71,35.54-76.82,40.37-92.85,38.06-24.09-3.47-31.61-15.19-30.8-21.77.48-3.93,2.06-5.52-11.8,1-16.37,7.67-46,15.39-70.6,17-26,1.73-29.89-14.15-26.24-22.49,2.14-4.88-1.92-2.06-4.47-1.28-5.42,1.65-28.7,12.54-38,19.17-8.09,5.75-9.53,3.3-9.53,3.3s-12.2-7.77-15.71-9.69-3-5.19,2.28-10.24a168.2,168.2,0,0,1,25.13-19.34c13-7.79,21.47-18-21.34,3.38-20,10-46.53,22.17-62.9,34.67-5.14,3.93-5.16,4.31-7.71,2.71-8-3.92-9.5-4.87-14.56-8.61-2.65-2.13-2.21-3.53,1.11-6.46,13.56-11.11,12.49-13-.93-5.69-6.31,3.45-21.73,11.31-34.34,18.5-1.15.66-3.82,3-5.79,1.48-6.33-3.8-7.8-5-9.73-7.09-.5-.55-2.05-2.12-1.64-3,1.92-4.47-.49-3.28-4.74-1.31s-18.85,9.59-38,9.27c-41.53-.69-11.82-33.87,3.84-44.73,10.13-7,55-28.85,74.74-21.75,18.05,6.5,16.31,9.24,29.1.66,7.34-.32,16.41,5.1,16.67,5.25M267.39,80.56c26.93-15.54,27-23.23,25-25.25-5.83-5.83-18.32-.56-43.58,15.54-13.61,8.68-29.7,24.43-26.36,28,3,3.26,16.12-1.66,45-18.32M637.61,91.87c26.92-15.55,29.31-25.76,26-29.91-7-8.91-21.81-4.25-47.07,11.85-13.61,8.67-29.91,26.35-25.23,31.87,2.86,3.38,17.4,2.84,46.25-13.81M556.19,63.44c.31,5.92,2.07,7.41,9.47,4.44s5.07-5.68,0-9C558.52,54.12,555.76,55.39,556.19,63.44Z"/></g></g></g></svg>